<svg xmlns="http://www.w3.org/2000/svg" width="252.536" height="153.165"><g fill="#FFF" stroke="#FFF" stroke-miterlimit="10"><path d="M67.533 79.118c-.176.26-.494 1.08-.955 2.456-.46 1.38-1.02 3.107-1.68 5.188-.658 2.08-1.373 4.405-2.14 6.98-.77 2.572-1.56 5.198-2.37 7.876-.813 2.68-1.592 5.304-2.338 7.878-.748 2.573-1.416 4.9-2.008 6.98-.593 2.078-1.086 3.82-1.482 5.226-.395 1.403-.637 2.234-.724 2.496-.22.83-.57 1.754-1.053 2.77-.484 1.012-1.054 1.975-1.712 2.885-.65.91-1.38 1.663-2.17 2.262-.79.597-1.6.896-2.43.896-1.405 0-2.425-.46-3.06-1.4-.638-.93-.955-2.65-.955-5.14v-1.092c0-.363.02-.753.066-1.17.044-.83.374-2.392.99-4.68.613-2.287 1.35-4.873 2.205-7.76.856-2.885 1.778-5.874 2.766-8.97s1.877-5.86 2.668-8.306c-2.327 2.603-4.85 5.19-7.57 7.76-2.724 2.575-5.51 4.89-8.364 6.94-2.857 2.058-5.73 3.734-8.63 5.03-2.896 1.3-5.685 1.95-8.362 1.95-3.07 0-5.72-.674-7.933-2.025-2.22-1.354-4.05-3.12-5.5-5.305s-2.525-4.655-3.227-7.41C.85 98.666.5 95.91.5 93.156V92.14c0-.31.02-.622.066-.934.263-4.992.976-10.113 2.14-15.365 1.164-5.25 2.688-10.47 4.577-15.67 1.887-5.195 4.07-10.28 6.552-15.245 2.48-4.966 5.18-9.66 8.1-14.08 2.918-4.42 6.024-8.487 9.316-12.206 3.3-3.718 6.68-6.916 10.15-9.594 3.468-2.68 6.968-4.77 10.5-6.28C55.43 1.256 58.93.5 62.4.5c3.993 0 7.86 1.092 11.59 3.275 3.73 2.184 7.22 5.72 10.47 10.607.743 1.092 1.216 2.197 1.413 3.314.2 1.12.3 2.17.3 3.16 0 2.338-.56 4.186-1.68 5.537-1.12 1.353-2.443 2.028-3.98 2.028-1.405 0-2.71-.74-3.92-2.22-1.21-1.48-2.56-3.6-4.05-6.35-1.404-2.495-2.952-4.3-4.64-5.42-1.69-1.12-3.524-1.676-5.5-1.676-3.073 0-6.354 1.275-9.844 3.82s-6.946 5.917-10.37 10.1c-3.425 4.188-6.706 8.97-9.845 14.35-3.14 5.384-5.917 10.895-8.33 16.537-2.416 5.64-4.336 11.206-5.76 16.69-1.43 5.485-2.14 10.41-2.14 14.78 0 1.455.097 2.95.294 4.483.196 1.532.57 2.924 1.12 4.17.546 1.25 1.292 2.277 2.237 3.08.945.81 2.14 1.21 3.59 1.21 1.624 0 3.468-.544 5.53-1.64 2.06-1.09 4.204-2.52 6.42-4.29 2.217-1.764 4.445-3.765 6.685-6.002 2.24-2.234 4.325-4.496 6.257-6.785 1.93-2.286 3.648-4.484 5.14-6.59 1.49-2.105 2.61-3.94 3.358-5.5l6.126-18.327c.747-1.975 1.723-3.378 2.93-4.21 1.208-.832 2.448-1.25 3.72-1.25.616 0 1.23.106 1.845.313.61.21 1.16.534 1.644.976.483.443.866 1.015 1.15 1.717.287.702.43 1.52.43 2.456 0 2.495-.22 4.835-.66 7.02-.44 2.185-1 4.315-1.68 6.395-.68 2.08-1.435 4.172-2.27 6.277-.83 2.106-1.643 4.304-2.432 6.59zm83.032 15.287c-1.933 2.6-4.182 5.134-6.75 7.604-2.567 2.47-5.213 4.66-7.934 6.59-2.72 1.92-5.4 3.47-8.03 4.64-2.63 1.17-5 1.75-7.11 1.75s-3.82-.7-5.14-2.11c-1.31-1.403-1.97-3.795-1.97-7.176 0-2.39.35-5.174 1.057-8.346-1.142 2.03-2.567 4.083-4.28 6.162-1.712 2.08-3.665 3.977-5.86 5.693-2.195 1.715-4.653 3.105-7.375 4.17-2.722 1.065-5.686 1.6-8.89 1.6-1.447 0-2.842-.183-4.18-.547-1.34-.365-2.514-.988-3.523-1.87-1.01-.886-1.82-2.068-2.436-3.55-.614-1.48-.92-3.34-.92-5.578 0-.05.09-.844.264-2.38.174-1.53.734-3.95 1.68-7.252.942-3.3 2.403-7.577 4.378-12.83 1.977-5.25 4.764-11.62 8.363-19.106.92-1.977 1.985-3.394 3.192-4.25 1.21-.86 2.514-1.29 3.92-1.29.614 0 1.25.093 1.91.273.66.185 1.27.47 1.843.86.57.39 1.03.885 1.383 1.48.35.6.528 1.287.528 2.07 0 .52-.065 1.014-.197 1.48-.22.886-.69 2.04-1.418 3.47-.726 1.43-1.57 3.07-2.535 4.915-.966 1.845-1.986 3.834-3.06 5.966-1.077 2.132-2.075 4.34-2.997 6.63-.923 2.29-1.713 4.614-2.37 6.98-.66 2.365-1.033 4.666-1.12 6.9 0 .937.22 1.795.66 2.574.436.78 1.16 1.17 2.17 1.17 2.853 0 5.574-.936 8.165-2.808 2.59-1.87 4.982-4.2 7.18-6.98 2.193-2.78 4.18-5.77 5.957-8.97 1.78-3.2 3.26-6.12 4.446-8.775.835-1.77 1.57-3.668 2.207-5.696.637-2.026 1.328-3.897 2.075-5.614.744-1.715 1.6-3.144 2.565-4.29.964-1.142 2.172-1.714 3.62-1.714 1.58 0 2.83.6 3.754 1.794.92 1.198 1.38 2.627 1.38 4.29 0 .938-.295 2.224-.888 3.86-.593 1.64-1.34 3.51-2.24 5.617-.9 2.106-1.875 4.355-2.93 6.747-1.052 2.394-2.03 4.824-2.93 7.293-.9 2.47-1.644 4.89-2.237 7.253s-.89 4.56-.89 6.59c0 1.87.966 2.804 2.897 2.804 1.36 0 3.05-.467 5.07-1.4 2.02-.938 4.137-2.25 6.354-3.94 2.217-1.69 4.434-3.68 6.65-5.966 2.217-2.288 4.183-4.758 5.894-7.41l.66 10.61z"/><path d="M152.607 90.503c-.483 1.197-.955 2.588-1.416 4.174-.46 1.586-.69 3.002-.69 4.25 0 .78.14 1.403.4 1.872.268.46.77.7 1.52.7.92 0 2.074-.33 3.457-.98 1.38-.65 2.874-1.51 4.478-2.577 1.604-1.064 3.27-2.287 5.005-3.666 1.733-1.377 3.457-2.808 5.17-4.29 1.712-1.48 3.346-2.963 4.905-4.444 1.56-1.48 2.953-2.846 4.183-4.093.35-.363.767-.624 1.25-.78.482-.155.9-.233 1.252-.233.875 0 1.6.364 2.17 1.093.57.728.857 1.688.857 2.886 0 1.09-.308 2.313-.92 3.665-.616 1.355-1.69 2.68-3.23 3.98-2.81 3.07-5.64 5.98-8.493 8.735-2.855 2.754-5.696 5.184-8.527 7.29-2.833 2.11-5.643 3.782-8.43 5.03-2.79 1.248-5.5 1.87-8.133 1.87-1.8 0-3.304-.284-4.51-.855-1.21-.574-2.173-1.354-2.897-2.34-.726-.99-1.24-2.158-1.55-3.51-.307-1.353-.46-2.78-.46-4.29 0-2.548.32-5.16.955-7.84.637-2.676 1.394-5.134 2.27-7.37 1.538-4.06 3.098-8.086 4.678-12.09s3.03-7.67 4.348-11l19.95-50.304c.79-2.028 1.855-3.458 3.195-4.29 1.34-.83 2.69-1.248 4.05-1.248 1.36 0 2.6.44 3.72 1.325s1.68 2.313 1.68 4.29c0 .935-.187 1.923-.56 2.962-.373 1.04-.845 2.157-1.415 3.353-1.1 2.442-2.406 5.432-3.92 8.966-1.516 3.536-3.14 7.383-4.875 11.542-1.733 4.16-3.512 8.49-5.332 12.985-1.82 4.5-3.6 8.88-5.332 13.14-1.734 4.27-3.358 8.31-4.873 12.13-1.515 3.82-2.82 7.14-3.918 9.946z"/><path d="M245.912 76.387c.615-.416 1.187-.753 1.713-1.015.526-.258 1.03-.39 1.515-.39.964 0 1.69.43 2.173 1.287.482.85.724 1.91.724 3.15 0 1.353-.295 2.73-.89 4.133-.59 1.403-1.48 2.573-2.666 3.51-4.69 4.16-8.89 7.954-12.57 11.387-3.69 3.43-7.17 6.383-10.44 8.853-3.27 2.47-6.46 4.38-9.58 5.73-3.11 1.35-6.45 2.028-10.01 2.028-3.33 0-5.91-.73-7.73-2.183-1.822-1.456-2.733-3.458-2.733-6.007v-.585c0-.18.02-.403.066-.664.174-1.56.856-3.353 2.04-5.38 1.187-2.03 2.613-4.134 4.28-6.32s3.446-4.39 5.335-6.63c1.888-2.23 3.63-4.35 5.236-6.354 1.6-2 2.93-3.833 3.98-5.498 1.057-1.664 1.58-3.015 1.58-4.056 0-.623-.22-1.116-.655-1.48-.438-.364-1.164-.546-2.173-.546-1.757 0-3.566.453-5.432 1.364-1.866.91-3.71 2.13-5.53 3.663-1.823 1.536-3.6 3.29-5.335 5.266-1.738 1.976-3.36 4.03-4.877 6.16-1.516 2.134-2.897 4.277-4.15 6.436-1.25 2.156-2.315 4.145-3.192 5.965-.26.57-.635 1.38-1.12 2.418-.48 1.04-1.01 2.21-1.58 3.51-.57 1.3-1.172 2.64-1.81 4.015-.636 1.378-1.22 2.68-1.743 3.9l-1.417 3.275c-.417.96-.714 1.626-.89 1.99-.22.47-.58 1.35-1.085 2.65-.502 1.3-1.083 2.82-1.743 4.565-.658 1.74-1.35 3.574-2.074 5.498s-1.405 3.745-2.042 5.46l-1.68 4.524c-.48 1.3-.79 2.185-.92 2.65-.44 1.354-.956 2.627-1.548 3.824-.593 1.194-1.273 2.25-2.04 3.16-.77.906-1.648 1.635-2.635 2.182-.99.546-2.096.82-3.324.82-1.58 0-2.888-.38-3.92-1.13-1.03-.756-1.548-2.2-1.548-4.33 0-1.04.13-2.106.39-3.197.265-1.093.594-2.173.988-3.238.397-1.067.804-2.106 1.22-3.12.418-1.015.803-1.99 1.15-2.926 2.37-5.2 4.787-10.41 7.245-15.637 2.46-5.225 4.818-10.396 7.078-15.52 2.26-5.12 4.36-10.152 6.29-15.092 1.93-4.94 3.535-9.67 4.808-14.192.35-.938.836-2.263 1.45-3.98.615-1.715 1.317-3.404 2.108-5.07.79-1.662 1.677-3.105 2.664-4.326.987-1.22 2.05-1.835 3.19-1.835 1.76 0 3.03.402 3.82 1.21.79.806 1.187 1.987 1.187 3.548 0 .312-.045.807-.13 1.48-.09.677-.2 1.394-.33 2.147-.133.757-.276 1.47-.43 2.15-.154.676-.297 1.17-.43 1.48 1.623-1.768 3.38-3.52 5.27-5.264 1.885-1.74 3.84-3.317 5.86-4.72 2.017-1.403 4.08-2.547 6.19-3.433 2.105-.882 4.21-1.324 6.32-1.324 1.446 0 2.885.206 4.31.62 1.427.418 2.7 1.03 3.82 1.83 1.12.81 2.03 1.82 2.73 3.046.703 1.223 1.055 2.64 1.055 4.25 0 2.134-.535 4.408-1.61 6.826-1.076 2.417-2.426 4.848-4.05 7.29-1.625 2.446-3.38 4.824-5.27 7.138-1.89 2.314-3.652 4.42-5.3 6.317-1.645 1.898-3.03 3.51-4.15 4.835-1.12 1.325-1.7 2.222-1.743 2.69 0 .624.198 1.13.593 1.52s1.053.585 1.975.585c.747 0 1.845-.417 3.294-1.25 1.445-.83 3.476-2.273 6.09-4.326 2.61-2.054 5.925-4.81 9.94-8.27 4.02-3.45 8.968-7.806 14.85-13.06z"/></g></svg>