<svg xmlns="http://www.w3.org/2000/svg" width="500" height="85.529"><g fill="#2D2D2D"><path d="M115.936 74.48v-6.71l8.744-.593c1.188-.086 1.358-.425 1.358-1.698V22.26h-8.743c-.935 0-1.19.083-1.36.933l-1.357 7.387h-9.34V13.01h54.678v17.576h-9.255l-1.35-7.388c-.17-.85-.422-.933-1.36-.933h-8.75V65.48c0 1.187.09 1.526 1.36 1.61l9.34.68v6.71h-33.96z"/><path d="M151.076 75.66h-36.32v-8.99L124.6 66c.104-.007.184-.015.244-.025.01-.1.015-.255.015-.495V23.444h-7.57c-.077 0-.14 0-.19.003l-1.55 8.317h-11.49V11.83h57.032v19.935h-11.417l-1.528-8.317c-.06-.003-.13-.003-.21-.003h-7.568V65.48c0 .17 0 .308.004.413.065.01.147.016.252.022l10.44.76v8.984zm-33.96-2.36h31.602v-4.433l-8.246-.6c-2.264-.15-2.453-1.46-2.453-2.788v-44.4h9.92c1.08 0 2.17.142 2.512 1.88l1.184 6.44h7.092V14.19h-52.31v15.216h7.177l1.18-6.422c.353-1.753 1.437-1.898 2.52-1.898h9.924V65.48c0 1.307-.19 2.71-2.454 2.876l-7.65.517V73.3z"/></g><g fill="#2D2D2D"><path d="M158.563 52.66c0-14.096 7.385-23.264 22.923-23.264 15.705 0 21.817 9.338 21.817 22.33 0 14.433-7.302 23.77-22.923 23.77-15.533 0-21.817-9.508-21.817-22.837zm31.33-.51c0-10.02-3.058-13.586-8.575-13.586-5.604 0-9.34 3.482-9.34 13.67 0 10.273 3.31 14.35 8.997 14.35 5.52 0 8.917-3.82 8.917-14.434z"/><path d="M180.38 76.677c-14.828 0-22.996-8.53-22.996-24.018 0-15.54 8.785-24.45 24.103-24.45 14.83 0 22.998 8.35 22.998 23.51 0 16.09-8.56 24.95-24.104 24.95zm1.106-46.1c-14.02 0-21.744 7.842-21.744 22.082 0 9.88 3.58 21.65 20.64 21.65 17.97 0 21.744-12.288 21.744-22.59 0-9.65-3.58-21.15-20.64-21.15zm-.51 37.186c-6.754 0-10.178-5.224-10.178-15.528 0-9.854 3.54-14.85 10.52-14.85 8.742 0 9.754 8.426 9.754 14.766 0 10.51-3.304 15.62-10.097 15.62zm.34-28.02c-3.504 0-8.16 1.295-8.16 12.49 0 11.804 4.464 13.17 7.818 13.17 3.322 0 7.738-1.372 7.738-13.253 0-10.932-3.737-12.406-7.395-12.406z"/></g><g fill="#2D2D2D"><path d="M240.416 74.48l-.852-4.755-.594-.087c-3.565 3.482-7.726 5.857-13.922 5.857-10.02 0-16.475-6.364-16.475-22.582 0-17.065 8.578-23.518 18.003-23.518 4.922 0 8.745 1.697 11.97 4.075V20.565c0-.848-.34-1.44-1.104-1.697l-4.668-1.612.933-6.878h17.066v55.187c0 1.27.08 1.442 1.357 1.613l4.072.594v6.708h-15.786zm-2.378-32.688c-2.122-1.445-4.84-2.546-7.303-2.546-6.28 0-8.745 5.855-8.745 13.413 0 8.23 2.376 12.82 7.725 12.82 2.89 0 6.03-1.7 8.323-3.65V41.79z"/><path d="M225.05 76.677c-11.715 0-17.654-7.995-17.654-23.763 0-15.464 7.17-24.696 19.182-24.696 3.87 0 7.42.997 10.79 3.042V20.565c0-.48-.14-.524-.3-.58l-5.59-1.93 1.2-8.857h19.275v56.366c0 .077 0 .245.004.395.084.01.19.02.333.05l5.095.74v8.91h-17.957l-.74-4.15c-4.052 3.56-8.316 5.16-13.64 5.16zm1.527-46.1c-10.69 0-16.823 8.142-16.823 22.337 0 14.403 5.003 21.404 15.295 21.404 5.14 0 9.18-1.702 13.09-5.522l.415-.406 2.014.29.827 4.62h13.622v-4.507l-3.065-.448c-2.01-.27-2.367-1.11-2.367-2.78V11.557h-14.86l-.662 4.9 3.754 1.296c1.202.403 1.897 1.43 1.897 2.812v15.24l-1.877-1.385c-3.563-2.623-7.142-3.844-11.273-3.844zm3.138 36.082c-5.906 0-8.905-4.72-8.905-14 0-9.28 3.62-14.6 9.926-14.6 2.495 0 5.4 1 7.967 2.75l.516.35v21.21l-.42.35c-1.39 1.183-5.05 3.933-9.09 3.933zm1.02-26.24c-6.582 0-7.565 7.663-7.565 12.23 0 11.64 4.928 11.64 6.545 11.64 2.13 0 4.77-1.123 7.145-3.026V42.43c-2.03-1.263-4.278-2.004-6.125-2.004z"/></g><g fill="#2D2D2D"><path d="M259.098 52.66c0-14.096 7.388-23.264 22.925-23.264 15.707 0 21.82 9.338 21.82 22.33 0 14.433-7.302 23.77-22.925 23.77-15.536 0-21.82-9.508-21.82-22.837zm31.33-.51c0-10.02-3.058-13.586-8.577-13.586-5.6 0-9.33 3.482-9.33 13.67 0 10.273 3.31 14.35 9 14.35 5.52 0 8.918-3.82 8.918-14.434z"/><path d="M280.918 76.677c-14.832 0-23-8.53-23-24.018 0-15.54 8.787-24.45 24.105-24.45 14.83 0 23 8.35 23 23.51-.002 16.09-8.56 24.95-24.105 24.95zm1.104-46.1c-14.022 0-21.746 7.842-21.746 22.082 0 9.88 3.583 21.65 20.642 21.65 17.97 0 21.745-12.288 21.745-22.59 0-9.65-3.58-21.15-20.64-21.15zm-.51 37.186c-6.754 0-10.178-5.224-10.178-15.528 0-9.854 3.538-14.85 10.517-14.85 8.75 0 9.76 8.426 9.76 14.766 0 10.51-3.3 15.62-10.09 15.62zm.34-28.02c-3.504 0-8.16 1.295-8.16 12.49 0 11.804 4.466 13.17 7.82 13.17 3.322 0 7.74-1.372 7.74-13.253 0-10.932-3.742-12.406-7.4-12.406z"/></g><g fill="#AF2F2F"><path d="M354.554 74.48v-6.624l6.963-.594c1.188-.17 1.358-.51 1.358-1.698V33.302h-.34l-12.14 28.95h-13.843l-11.968-29.035h-.427V65.48c0 1.356.086 1.527 1.358 1.698l7.303.68v6.622h-25.81v-6.623l5.347-.594c1.19-.17 1.36-.427 1.36-1.698V22.01c0-1.274-.17-1.527-1.36-1.697l-5.347-.595V13.01h22.753l14.78 38.46h.34l15.54-38.46h22.076v6.623l-5.69.68c-1.272.17-1.36.338-1.36 1.61v43.642c0 1.104.255 1.442 1.36 1.613l5.69.68v6.622H354.56z"/><path d="M383.668 75.66h-30.292v-8.886l8.04-.688c.138-.02.23-.043.29-.06-.02-.047-.012-.198-.012-.463v-27.21L351.177 63.43h-15.414l-10.426-25.294v27.342c0 .092 0 .304.008.48.08.01.186.028.328.05l8.325.77v8.88H305.83V66.8l6.396-.712c.13-.02.23-.037.295-.053.01-.096.02-.245.02-.473V22.01c0-.23 0-.376-.01-.473-.072-.016-.18-.037-.33-.057l-6.36-.707V11.83h24.74l14.16 36.854 14.88-36.854h24.05v8.85l-6.73.804c-.133.018-.235.034-.314.048-.004.15-.004.318-.004.395v43.64c0 .205.01.326.02.396.06.017.157.027.34.055l6.688.8v8.844zm-27.935-2.36h25.575v-4.396l-4.65-.556c-1.69-.26-2.397-1.093-2.397-2.784v-43.64c0-1.667.36-2.51 2.39-2.78l4.668-.557V14.19H361.21l-15.54 38.46h-1.944l-14.773-38.46H308.19v4.472l4.3.478c2.02.29 2.406 1.27 2.406 2.87v43.555c0 1.6-.386 2.58-2.368 2.866l-4.34.49v4.38h23.453v-4.365l-6.23-.58c-2.08-.28-2.43-1.11-2.43-2.873V32.038h2.4l11.97 29.037h12.27l12.14-28.954h2.3V65.57c0 1.56-.394 2.582-2.365 2.866l-5.953.51v4.36z"/></g><g fill="#AF2F2F"><path d="M411.176 74.48L394.11 22.01c-.34-1.02-1.017-1.19-2.038-1.444l-3.82-.933.85-6.623h25.727v6.623l-6.88.763 12.73 42.45h.68l12.31-42.45-6.79-.763.85-6.623h21.983v6.623l-3.566.933c-1.02.255-1.865.595-2.12 1.612L428.5 74.48h-17.324z"/><path d="M429.377 75.66h-19.06L392.99 22.373c-.117-.342-.132-.396-1.2-.663l-4.844-1.18 1.118-8.7h27.943v8.857l-6.52.724 11.523 38.43 11.14-38.42-6.59-.74 1.13-8.84h24.21v8.71l-4.448 1.166c-1.077.27-1.21.485-1.275.76l-15.8 53.19zm-17.345-2.36h15.584l15.286-51.458c.45-1.788 2.148-2.217 2.965-2.42l2.675-.7V14.19h-19.77l-.566 4.403 6.99.786-12.944 44.64h-2.446l-13.392-44.64 7.235-.806v-4.39h-23.52l-.586 4.548 2.798.685c1.102.28 2.334.587 2.88 2.22L412.03 73.3z"/></g><g fill="#AF2F2F"><path d="M498.82 70.83c-5.01 3.056-13.5 4.666-21.227 4.666-21.14 0-29.8-12.308-29.8-32.007 0-18.09 10.44-31.59 31.582-31.59 7.047 0 14.603 1.78 19.273 4.84v16.64l-9.338-.767-1.358-8.32c-.17-.848-.512-1.273-1.36-1.53-1.867-.594-4.753-1.018-7.554-1.018-10.785 0-17.664 7.3-17.664 21.734 0 15.026 6.54 22.33 17.07 22.33 2.8 0 6.28-.427 8.488-1.105 1.02-.257 1.273-.51 1.528-1.784l1.273-7.896h9.086v15.8z"/><path d="M477.594 76.677c-20.558 0-30.98-11.167-30.98-33.188 0-20.21 12.554-32.77 32.763-32.77 7.545 0 15.18 1.93 19.92 5.03l.532.348v18.56l-11.54-.946-1.51-9.23c-.09-.426-.15-.474-.537-.59-1.855-.59-4.68-.97-7.214-.97-10.63 0-16.483 7.3-16.483 20.557 0 13.835 5.492 21.15 15.89 21.15 2.782 0 6.13-.434 8.14-1.05.416-.106.503-.158.525-.17.006-.015.08-.15.195-.72l1.428-8.84H500v17.63l-.564.344c-4.896 2.986-13.265 4.842-21.842 4.842zm1.782-63.593c-19.037 0-30.404 11.367-30.404 30.405 0 20.45 9.63 30.82 28.622 30.82 7.718 0 15.475-1.626 20.047-4.167v-13.93h-6.9l-1.11 6.905c-.34 1.73-.9 2.36-2.4 2.737-2.19.67-5.74 1.134-8.78 1.134-11.77 0-18.242-8.35-18.242-23.508 0-14.563 6.867-22.916 18.84-22.916 2.8 0 5.83.414 7.913 1.075 1.226.37 1.896 1.117 2.158 2.42l1.22 7.453 7.144.585V17.396c-4.37-2.632-11.374-4.313-18.096-4.313z"/></g><path d="M12.83 5.7h8.78V0h-8.78c-2.433 0-4.8.683-6.85 1.98l3.047 4.814C10.163 6.08 11.475 5.7 12.83 5.7m-7.126 7.127c0-1.042.216-2.042.646-2.98L1.172 7.46C.394 9.15 0 10.956 0 12.826V22.92h5.704V12.828zM0 28.68h5.704v14.37H0zm76.782-21.7c1.718-1.092 3.432-2.122 5.13-3.08-.97-1-2.104-1.842-3.336-2.478C76.773.492 74.74 0 72.7 0h-5.047v5.7H72.7c1.495 0 2.905.45 4.082 1.28M0 48.81h5.704v14.397H0zM27.37 0h14.37v5.7H27.37zm20.127 0h14.396v5.7H47.497zm6.358 79.824h14.367v5.705H53.855zm25.972-47.437h5.7v14.398h-5.7zm0 20.155h5.7v14.372h-5.7zM5.704 72.7v-3.74H0v3.74c0 4.667 2.54 8.975 6.63 11.235l2.76-4.99c-2.275-1.26-3.686-3.65-3.686-6.246m74.123-49.86v3.776h5.7V18.15c-1.874 1.4-3.77 2.96-5.7 4.69m0 49.853c0 3.573-2.667 6.612-6.203 7.07l.726 5.653c3.07-.397 5.897-1.895 7.956-4.22 2.078-2.348 3.223-5.367 3.223-8.507v-.03h-5.71v.03zM13.542 79.82H27.94v5.706H13.542zm20.154 0h14.4v5.706h-14.4z" fill="#2D2D2D"/><path fill="#AF2F2F" d="M13.06 45.396L39.802 72.14S66.548 20.687 95.465 9.146L94.38 1.002C78.633 7.246 54.734 23.675 37.088 48.79l-18.6-10.997-5.428 7.603z"/></svg>