<svg xmlns="http://www.w3.org/2000/svg" width="100" height="100" viewBox="5.0 -10.0 100.0 135.0"><path d="M30.416 13.688c1.372-1.628 1.966-3.467 1.77-5.53-.2-2.063-1.083-3.777-2.658-5.155-1.57-1.375-3.436-2.016-5.6-1.923-2.07.197-3.78 1.11-5.157 2.728-1.37 1.62-1.962 3.466-1.765 5.534.098 2.156.958 3.897 2.578 5.226 1.626 1.326 3.466 1.945 5.53 1.843 2.16-.185 3.933-1.1 5.307-2.72z"/><circle cx="58" cy="76.817" r="1.541"/><circle cx="62.59" cy="79.412" r="1.541"/><circle cx="69.577" cy="76.817" r="1.54"/><circle cx="33.127" cy="78.358" r="1.54"/><circle cx="30.533" cy="84.124" r="1.541"/><circle cx="25.642" cy="80.951" r="1.541"/><circle cx="16.56" cy="78.358" r="1.541"/><circle cx="23.147" cy="86.798" r="1.54"/><circle cx="17.758" cy="85.257" r="1.54"/><path d="M21.655 92.39c0 .848-.69 1.54-1.54 1.54s-1.54-.692-1.54-1.54c0-.852.688-1.54 1.54-1.54s1.54.688 1.54 1.54zm50.047-9.898c0 .85-.69 1.542-1.542 1.542-.85 0-1.54-.693-1.54-1.542 0-.852.69-1.54 1.54-1.54.852 0 1.542.69 1.542 1.54z"/><circle cx="59.54" cy="86.798" r="1.54"/><circle cx="75.964" cy="88.337" r="1.541"/><path d="M72.116 91.99c0 .848-.692 1.54-1.54 1.54-.85 0-1.543-.692-1.543-1.54 0-.853.692-1.54 1.542-1.54.85 0 1.54.688 1.54 1.54zm22.114-2.773h-7.724v-3.115h7.724v3.115m5.45 6.45H86.506v-3.114H99.68v3.115M17.72 18.142l.008.002s1.343 2.52 1.034 3.93c-.313 1.41-1.44 1.774-2.25 1.595l-.005-.006c-.812-.178-1.63-.968-1.317-2.38.31-1.407 2.53-3.145 2.53-3.145zm-3.116-3.598l.002.005s-.877 2.72-2.103 3.48c-1.226.755-2.278.2-2.708-.506l-.01-.007c-.43-.705-.428-1.84.802-2.595 1.223-.76 4.017-.382 4.017-.382z"/><path d="M68.11 69.316L57.78 59.253 47.64 25.538l5.31 3.415 2.947 12.968c.394 2.067 1.622 3.48 3.683 3.38 2.26-.194 3.342-1.696 3.14-4.06 0-.19-.045-.546-.045-.654l-3.387-15.03c-.195-.684-.54-1.226-1.028-1.624L42.778 12.266c-1.463-1.177-3.235-1.72-5.3-1.62-2.555.196-4.57 1.476-6.04 3.833l-7.812 15.33-10.466 7.217c-.987.697-1.726 2.19-1.634 3.565.288 1.697 2.196 2.846 3.543 2.696.93.014 1.442-.2 2.063-.505l10.906-7.53c.55-.347 1.134-1.073 1.33-1.46l2.95-5.75 3.39 15.33-10.98 13.91c-.293.39-.496.94-.594 1.62L22.15 69.315H9.337V98.93H41.95V69.317h-9.177l1.397-7.46L44.41 50.67l3.32 10.885c.39.89.73 1.57 1.028 2.062l5.18 5.698h-3.16v29.617h32.608V69.316H68.11zM38.676 95.663h-26.07V72.586h26.07v23.077zm41.44 0h-26.07V72.586h26.07v23.077z"/><text y="117.5" font-size="5" font-weight="bold" font-family="Helvetica Neue, Helvetica, Arial-Unicode, Arial, Sans-serif">Created by Luis Prado</text><text y="122.5" font-size="5" font-weight="bold" font-family="Helvetica Neue, Helvetica, Arial-Unicode, Arial, Sans-serif">from the Noun Project</text></svg>